HIERARCHY
ROOT ui
{
	 OFFSET 0 0 0
	 CHANNELS 3 XPosition YPosition Z Position
	 EndSite
	 {
	 OFFSET 0 -1 0
	 }
}
ROOT li
{
	 OFFSET 0 0 0
	 CHANNELS 3 XPosition YPosition Z Position
	 EndSite
	 {
	 OFFSET 0 -1 0
	 }
}
ROOT ul
{
	 OFFSET 0 0 0
	 CHANNELS 3 XPosition YPosition Z Position
	 EndSite
	 {
	 OFFSET 0 -1 0
	 }
}
ROOT ll
{
	 OFFSET 0 0 0
	 CHANNELS 3 XPosition YPosition Z Position
	 EndSite
	 {
	 OFFSET 0 -1 0
	 }
}
ROOT tt
{
	 OFFSET 0 0 0
	 CHANNELS 3 XPosition YPosition Z Position
	 EndSite
	 {
	 OFFSET 0 -1 0
	 }
}
ROOT tb
{
	 OFFSET 0 0 0
	 CHANNELS 3 XPosition YPosition Z Position
	 EndSite
	 {
	 OFFSET 0 -1 0
	 }
}
ROOT td
{
	 OFFSET 0 0 0
	 CHANNELS 3 XPosition YPosition Z Position
	 EndSite
	 {
	 OFFSET 0 -1 0
	 }
}
ROOT v
{
	 OFFSET 0 0 0
	 CHANNELS 3 XPosition YPosition Z Position
	 EndSite
	 {
	 OFFSET 0 -1 0
	 }
}
ROOT bn
{
	 OFFSET 0 0 0
	 CHANNELS 3 XPosition YPosition Z Position
	 EndSite
	 {
	 OFFSET 0 -1 0
	 }
}
MOTION
Frames: 10
Frame Time: 0.002
-0.002832047939300537	1.903180032968521E-4	0		0.3316737365722656	-2.38190869140625	0		-1.0148419799804687	-0.06214679718017578	0		-0.8479845581054688	-2.280798583984375	0		0.8260635375976563	-0.702898681640625	0		2.325591552734375	0.3574765625	0		4.29689306640625	0.6399315185546876	0		5.5111552734375	0.2352878723144531	0		-0.11759261322021484	5.95047900390625	0		
0.023383270263671874	-8.402299880981445E-4	0		0.375925537109375	-2.38219677734375	0		-1.0327083740234375	-0.06854949951171875	0		-0.9054913330078125	-2.26362255859375	0		0.821361572265625	-0.698472412109375	0		2.27759375	0.34254281616210935	0		4.29220654296875	0.6463923950195313	0		5.51137060546875	0.23468917846679688	0		-0.11940499877929688	5.9518525390625	0		
-0.002432904005050659	-0.0011063109636306762	0		0.34713125610351564	-2.382416259765625	0		-1.044380615234375	-0.05902886962890625	0		-0.832398681640625	-2.27232958984375	0		0.8644721069335938	-0.7047296142578126	0		2.299841796875	0.3466017761230469	0		4.292193359375	0.6327899780273437	0		5.5115498046875	0.2340964660644531	0		-0.15057861328125	5.93065966796875	0		
-0.010276243209838868	-6.169810295104981E-4	0		0.33840802001953124	-2.374910400390625	0		-1.032384765625	-0.06983595275878907	0		-0.9071593017578125	-2.266877685546875	0		0.8127401733398437	-0.6965975341796875	0		2.31390673828125	0.34079153442382815	0		4.28541748046875	0.638298095703125	0		5.496806640625	0.2417296905517578	0		-0.12016873168945312	5.95159619140625	0		
-0.007134799003601074	0.0017346630096435546	0		0.31945166015625	-2.380237548828125	0		-1.032285888671875	-0.07044731903076172	0		-0.860195556640625	-2.2781669921875	0		0.8187557373046875	-0.703282958984375	0		2.304322021484375	0.36234445190429687	0		4.28551171875	0.6377216186523438	0		5.50587353515625	0.23903125	0		-0.12010943603515625	5.95099072265625	0		
-0.007081336975097656	0.001157075047492981	0		0.32154644775390623	-2.378842529296875	0		-1.095052001953125	-0.05812083435058594	0		-0.893025390625	-2.271272705078125	0		0.8068430786132812	-0.7016829223632812	0		2.286201904296875	0.3500405883789062	0		4.28256201171875	0.6372101440429687	0		5.49104296875	0.24669891357421875	0		-0.12107296752929687	5.9514267578125	0		
-0.011000041961669921	0.005668889999389648	0		0.3406496887207031	-2.373661865234375	0		-1.0200654296875	-0.060754642486572266	0		-0.8279707641601562	-2.269761474609375	0		0.8298377685546875	-0.7035573120117188	0		2.321364501953125	0.3599976501464844	0		4.27456884765625	0.636798095703125	0		5.49105029296875	0.2461762390136719	0		-0.12108903503417968	5.950880859375	0		
-0.007106831073760986	1.0274700075387954E-4	0		0.3474633483886719	-2.38526953125	0		-1.0400538330078124	-0.057978004455566404	0		-0.9049608154296875	-2.26716064453125	0		0.8187925415039062	-0.7049044799804688	0		2.3043310546875	0.3597417297363281	0		4.278619140625	0.6422442626953125	0		5.4861318359375	0.25375604248046874	0		-0.08705865478515624	5.9558798828125	0		
-0.007179393768310547	-3.6562401056289674E-4	0		0.3702926330566406	-2.393068603515625	0		-1.0441837158203124	-0.0623905029296875	0		-0.8321370239257813	-2.275684814453125	0		0.8236343994140625	-0.7114425659179687	0		2.31718408203125	0.35409130859375	0		4.28227001953125	0.622729736328125	0		5.48602978515625	0.25130027770996094	0		-0.15529649353027344	5.94539453125	0		
-0.01121140193939209	0.0042671928405761715	0		0.31729827880859374	-2.3857275390625	0		-1.0952540283203125	-0.060080020904541016	0		-0.9051294555664062	-2.268056884765625	0		0.8005476684570313	-0.7105336303710937	0		2.290067138671875	0.353060546875	0		4.26835400390625	0.6355127563476562	0		5.4900400390625	0.25882562255859376	0		-0.1203561019897461	5.9484638671875	0		
